<svg xmlns="http://www.w3.org/2000/svg" width="32" height="37" viewBox="0 0 32 37" fill="none">
  <path d="M0 2.3125V34.6875H32V2.3125H0ZM17.4143 27.5621C17.4143 30.7129 15.5857 32.151 12.9214 32.151C10.5143 32.151 9.12143 30.8936 8.40714 29.3687L10.8571 27.8729C11.3286 28.7184 11.7571 29.4338 12.7929 29.4338C13.7786 29.4338 14.4071 29.0436 14.4071 27.5187V17.1775H17.4143V27.5621ZM24.5286 32.151C21.7357 32.151 19.9286 30.8068 19.05 29.0436L21.5 27.6127C22.1429 28.675 22.9857 29.4627 24.4643 29.4627C25.7071 29.4627 26.5071 28.834 26.5071 27.9596C26.5071 26.9189 25.6929 26.5504 24.3143 25.9361L23.5643 25.6109C21.3929 24.6787 19.9571 23.5008 19.9571 21.0221C19.9571 18.7385 21.6786 17.0041 24.3571 17.0041C26.2714 17.0041 27.6429 17.6762 28.6286 19.4395L26.2857 20.957C25.7714 20.0248 25.2143 19.6562 24.35 19.6562C23.4714 19.6562 22.9143 20.2199 22.9143 20.957C22.9143 21.8676 23.4714 22.2361 24.7643 22.807L25.5143 23.1322C28.0714 24.2379 29.5071 25.3725 29.5071 27.9162C29.5071 30.6479 27.3786 32.151 24.5286 32.151Z" fill="white"/>
</svg>